<svg version="1.1" xmlns="http://www.w3.org/2000/svg" xmlns:xlink="http://www.w3.org/1999/xlink" x="0px" y="0px" style="enable-background:new 0 0 504 360;" xml:space="preserve" viewBox="106.37 42.88 275.52 274.92">
<style type="text/css">
	.st0{opacity:0.79;}
	.st1{fill:#06355B;}
	.st2{fill:#033258;}
	.st3{fill:#5D83A0;}
</style>
<g id="Layer_2_xA0_Image_00000023275800045772899530000017663951755451541927_" class="st0">
	<g>
		<g>
			<path class="st1" d="M211.3,241.31c0.05,5.33,0.07,10.44,0.15,15.54c0.07,4.72-0.46,9.39-1.16,14.05     c-0.47,3.18-0.92,6.36-1.56,9.51c-0.39,1.92-1.11,3.77-1.68,5.65c-0.55,1.82-1.01,3.67-1.66,5.44c-0.95,2.57-2.01,5.11-3.11,7.63     c-0.83,1.92-1.67,3.85-2.72,5.66c-0.91,1.56-2.07,2.99-3.2,4.41c-0.82,1.04-1.79,1.96-2.67,2.97c-0.22,0.25-0.31,0.62-0.49,0.91     c-0.29,0.46-0.52,1.02-0.93,1.34c-3.19,2.48-6.78,3.66-10.84,3.3c-1.95-0.17-3.85-0.45-5.64-1.36c-2.15-1.1-3.74-2.78-4.81-4.85     c-1.25-2.41-2.03-5.02-1.79-7.8c0.08-0.94,0.29-1.89,0.57-2.79c0.25-0.78,0.13-1.29-0.48-1.89c-8.43-8.38-16.83-16.8-25.23-25.21     c-6.29-6.29-12.59-12.58-18.86-18.89c-0.49-0.49-0.9-0.6-1.57-0.46c-2.56,0.54-5.18,0.64-7.72,0.05     c-1.39-0.32-2.59-1.36-3.96-1.84c-2.21-0.77-2.9-2.8-4.09-4.45c-1.9-2.62-1.4-5.59-1.45-8.5c-0.04-2.42,1.39-4.2,2.32-6.25     c0.92-2.02,2.87-2.64,4.25-3.99c1.74-1.7,3.86-3.02,5.79-4.53c2.79-2.19,5.98-3.63,9.2-5.02c2.58-1.11,5.14-2.31,7.81-3.15     c2.56-0.81,5.25-1.22,7.89-1.79c1.9-0.41,3.79-0.9,5.7-1.14c3.55-0.43,7.11-0.79,10.68-0.99c4.69-0.26,9.4-0.41,14.1-0.45     c2.5-0.02,5,0.28,7.5,0.43c0.39,0.02,0.79,0,0.94,0c0-6.77-0.03-13.44,0.01-20.11c0.02-2.75,0.06-5.51,0.32-8.25     c0.24-2.56,0.77-5.09,1.18-7.63c0.04-0.27,0.16-0.54,0.19-0.82c0.44-4.41,2.15-8.49,3.31-12.71c1.26-4.57,3.66-8.59,5.83-12.7     c1.42-2.69,3.26-5.23,5.66-7.25c0.39-0.33,0.85-0.75,0.96-1.2c0.34-1.42,1.6-1.92,2.51-2.76c0.98-0.91,1.96-1.82,3.01-2.65     c1.22-0.97,2.51-1.86,3.78-2.78c1.06-0.77,2.09-1.58,3.19-2.27c1.67-1.04,3.31-2.18,5.11-2.95c3.13-1.34,6.32-2.54,9.56-3.57     c2.48-0.8,5.07-1.28,7.62-1.86c1.38-0.31,2.79-0.54,4.18-0.81c4.26-0.85,8.56-1.31,12.91-1.39c5.1-0.09,10.21-0.34,15.31-0.4     c2.1-0.02,4.21,0.27,6.31,0.42c0.31,0.02,0.63,0,0.77,0c0-7.43-0.11-14.78,0.04-22.13c0.08-3.93,0.51-7.86,0.97-11.77     c0.23-1.95,0.87-3.85,1.32-5.78c0.44-1.88,0.71-3.81,1.33-5.63c1.1-3.25,1.72-6.64,3.47-9.68c1.81-3.15,3.33-6.46,5.06-9.65     c0.44-0.82,1.15-1.5,1.78-2.2c1.14-1.26,2.33-2.47,3.48-3.72c0.34-0.37,0.59-0.83,0.91-1.22c1.39-1.68,2.89-3.23,4.93-4.14     c0.85-0.38,1.64-0.93,2.5-1.28c3.45-1.42,7.09-1.18,10.61-0.65c3.89,0.59,6.22,3.34,7.6,6.93c1.36,3.56,0.64,6.95-0.73,10.31     c-0.39,0.97-0.51,1.78,0.45,2.72c6.88,6.76,13.67,13.6,20.48,20.42c7.63,7.63,15.28,15.25,22.89,22.91     c0.59,0.6,0.97,0.66,1.7,0.22c2.5-1.49,5.29-1.64,8.1-1.41c2.03,0.16,3.95,0.71,5.74,1.77c2.45,1.47,3.64,3.75,4.42,6.35     c0.78,2.61,0.66,5.26-0.09,7.79c-0.77,2.58-1.41,5.33-3.77,7.12c-0.22,0.17-0.26,0.57-0.45,0.8c-0.63,0.75-1.22,1.53-1.95,2.17     c-0.72,0.64-1.63,1.07-2.37,1.69c-1.58,1.32-2.98,2.91-4.7,4.02c-2.59,1.67-5.4,2.99-8.08,4.52c-3.5,2.01-7.33,3.17-11.15,4.36     c-3.94,1.23-7.93,2.26-12.08,2.57c-4.45,0.33-8.88,0.91-13.33,1.14c-4.54,0.24-9.1,0.25-13.65,0.24c-2.21,0-4.42-0.28-6.61-0.44     c0,3.67,0.03,7.13-0.01,10.6c-0.05,4.6,0.03,9.21-0.28,13.79c-0.3,4.47-0.95,8.93-1.6,13.37c-0.38,2.56-0.93,5.12-1.67,7.6     c-0.87,2.91-1.96,5.75-3.08,8.58c-0.84,2.12-1.7,4.26-2.84,6.23c-1.22,2.11-2.78,4.02-4.19,6.01c-0.07,0.1-0.17,0.18-0.23,0.28     c-2.31,3.97-6.12,6.55-9.24,9.76c-1.63,1.67-3.84,2.77-5.71,4.22c-3.38,2.62-7.39,4.02-11.19,5.8c-1.56,0.73-3.27,1.18-4.94,1.63     c-3.52,0.95-7.02,1.97-10.59,2.68c-2.68,0.53-5.45,0.58-8.17,0.92c-7.92,0.98-15.87,0.69-23.82,0.67     C214.12,241.67,212.67,241.43,211.3,241.31z M186.27,216.39c-4.25-0.14-8.28-0.32-12.31-0.41c-12.14-0.25-24.21,0.32-35.97,3.75     c-9.67,2.82-18.25,7.56-25.41,14.72c-1.51,1.51-2.52,3.28-2.83,5.42c-0.58,3.98,0.61,7.31,3.83,9.73     c3.21,2.41,6.76,2.74,10.39,1.02c0.99-0.47,1.47-0.32,2.19,0.4c9.16,9.21,18.35,18.4,27.53,27.58     c6.53,6.53,13.05,13.06,19.6,19.58c0.58,0.58,0.75,0.98,0.3,1.81c-1.24,2.31-1.46,4.83-0.69,7.33c2.35,7.62,11.5,9.73,17.08,3.98     c4.39-4.53,7.64-9.82,10.15-15.57c5.07-11.6,7.41-23.83,7.99-36.4c0.25-5.54-0.14-11.11-0.23-16.67c-0.02-1.54,0-3.08,0-4.67     c0.12-0.02,0.27-0.07,0.42-0.06c10.11,0.57,20.21,0.81,30.32-0.11c8.07-0.74,15.97-2.25,23.49-5.33     c16.27-6.67,27.26-18.39,33.04-34.99c2.6-7.48,3.9-15.22,4.4-23.1c0.56-8.75,0.63-17.5-0.01-26.25     c-0.05-0.62-0.01-1.26-0.01-1.94c0.52,0,0.95-0.01,1.38,0c5.56,0.15,11.11,0.4,16.67,0.42c10.59,0.03,21.06-0.95,31.24-4.1     c9.36-2.9,17.61-7.65,24.54-14.61c2.5-2.51,4.34-5.39,5.03-8.95c0.94-4.85-1.76-9.03-6.53-10.08c-3.47-0.77-6.56,0.21-9.42,2.07     c-0.69,0.45-1.04,0.38-1.6-0.18c-8.24-8.27-16.5-16.52-24.76-24.78c-6.79-6.79-13.57-13.58-20.37-20.36     c-1.04-1.04-2.12-2.03-3.17-3.03c0.34-0.51,0.54-0.8,0.73-1.11c1.34-2.13,2.28-4.4,2.4-6.94c0.2-4.13-2.7-7.72-6.66-8.22     c-4.86-0.62-9.06,0.73-12.57,4.21c-3.42,3.4-6.41,7.13-8.88,11.26c-5.59,9.33-8.21,19.6-9.34,30.29     c-1.01,9.56-1.07,19.15-0.44,28.75c0.08,1.22,0.01,2.45,0.01,3.75c-0.41,0-0.71,0-1.02,0c-7.03-0.12-14.07-0.46-21.1-0.32     c-11.4,0.22-22.6,1.78-33.21,6.28c-11.83,5.02-21,13.09-27.37,24.27c-4.84,8.49-7.25,17.76-8.41,27.38     c-1.2,9.92-1.21,19.86-0.6,29.82C186.16,213.46,186.2,214.89,186.27,216.39z"/>
			<path class="st1" d="M353.72,118.17c-3.25,2.22-6.78,3.86-10.52,5.01c-2.28,0.7-4.64,1.15-6.94,1.8c-0.83,0.23-1.32,0-1.88-0.57     c-5.59-5.66-11.2-11.3-16.82-16.92c-5.88-5.87-11.78-11.73-17.7-17.56c-0.65-0.64-0.85-1.27-0.68-2.12     c0.97-4.62,2.29-9.12,4.44-13.34c0.72-1.41,1.56-2.76,2.33-4.1C321.91,86.34,337.77,102.21,353.72,118.17z M306.6,75.87     c-0.48,1.18-1.02,2.36-1.45,3.57c-0.72,2.04-1.31,4.13-2.1,6.14c-0.51,1.29-0.41,2.29,0.67,3.18c0.58,0.48,1.17,0.96,1.71,1.49     c2.73,2.71,5.45,5.43,8.17,8.16c3.02,3.03,6.04,6.07,9.05,9.12c2.28,2.32,4.52,4.68,6.83,6.98c2.17,2.15,4.38,4.26,6.62,6.35     c0.27,0.26,0.8,0.43,1.16,0.37c3.06-0.49,5.94-1.58,8.79-2.74c0.75-0.3,1.46-0.7,2.3-1.11     C334.38,103.51,320.56,89.76,306.6,75.87z"/>
			<path class="st1" d="M270.41,201.84c-16.06-16.05-32.03-32.02-48.19-48.19c1.65-1.01,3.26-2.08,4.95-3     c3.85-2.08,7.98-3.41,12.23-4.37c0.34-0.08,0.89,0.09,1.14,0.34c6.23,6.2,12.43,12.44,18.65,18.66     c5.97,5.96,11.94,11.92,17.94,17.85c0.6,0.59,0.87,1.15,0.67,2c-1.37,5.88-3.52,11.43-7.06,16.37     C270.64,201.62,270.52,201.72,270.41,201.84z M269.69,196.28c0.3-0.31,0.8-0.62,0.98-1.06c1.23-3.12,2.41-6.26,3.54-9.42     c0.12-0.33-0.08-0.93-0.34-1.22c-0.89-1-1.88-1.92-2.83-2.87c-2.83-2.84-5.63-5.71-8.51-8.5c-1.55-1.5-3.33-2.77-4.86-4.28     c-1.15-1.13-1.93-2.66-3.13-3.71c-3.45-3.02-6.23-6.72-10.01-9.44c-1.94-1.39-3.38-3.46-5.12-5.14     c-0.38-0.36-1.19-0.67-1.62-0.51c-3.46,1.29-6.87,2.7-10.25,4.05C241.64,168.26,255.63,182.23,269.69,196.28z"/>
			<path class="st1" d="M180.45,290.87c-15.74-15.73-31.45-31.43-47.31-47.28c1.6-0.82,3.19-1.7,4.84-2.44     c3.95-1.78,8.11-2.86,12.34-3.69c1.06-0.21,1.84,0,2.65,0.83c4.79,4.88,9.64,9.69,14.48,14.53c6.05,6.05,12.08,12.11,18.17,18.12     c0.9,0.89,1.26,1.65,1,3c-1.09,5.6-2.69,10.99-5.51,15.98c-0.16,0.28-0.31,0.56-0.49,0.82     C180.56,290.83,180.44,290.88,180.45,290.87z M138.4,244.4c2.09,2.13,3.93,4.05,5.81,5.92c2.05,2.05,4.1,4.1,6.2,6.08     c3.02,2.85,5.54,6.24,9.08,8.53c0.26,0.17,0.44,0.46,0.64,0.7c0.8,0.96,1.55,1.96,2.41,2.86c2.22,2.32,4.47,4.61,6.74,6.89     c2.07,2.08,4.19,4.11,6.28,6.17c1.28,1.26,2.55,2.54,4.12,4.11c1.06-3.16,2.03-5.95,2.93-8.76c0.62-1.96,0.57-3.62-1.22-5.27     c-4.22-3.92-8.19-8.12-12.26-12.2c-5.88-5.88-11.77-11.75-17.63-17.65c-0.69-0.7-1.46-1.03-2.34-0.77     C145.59,242.09,142.06,243.24,138.4,244.4z"/>
			<path class="st1" d="M262.95,209.25c-3.79,2.69-8.04,4.72-12.65,6.01c-1.27,0.35-2.56,0.63-3.8,1.05     c-0.92,0.31-1.54,0.09-2.22-0.59c-5.11-5.18-10.24-10.33-15.38-15.47c-6.75-6.76-13.51-13.51-20.29-20.23     c-0.72-0.71-1.01-1.32-0.76-2.38c1.34-5.68,3.35-11.05,6.67-15.89c0.15-0.22,0.35-0.42,0.43-0.52     C230.94,177.23,246.91,193.21,262.95,209.25z M216.11,166.07c-1.93,2.02-2.4,4.33-3.21,6.46c-0.59,1.54-1.08,3.12-1.51,4.71     c-0.1,0.35,0.11,0.92,0.37,1.2c1.4,1.48,2.86,2.89,4.29,4.33c2.92,2.92,5.8,5.89,8.78,8.76c1.64,1.58,3.55,2.88,5.15,4.5     c1.91,1.93,3.7,3.97,5.46,6.06c3.07,3.63,6.66,6.82,10.04,10.18c0.23,0.23,0.62,0.56,0.84,0.5c2.28-0.63,4.57-1.21,6.78-2.03     c1.64-0.61,3.15-1.55,4.72-2.34c-0.06-0.07-0.12-0.18-0.2-0.26c-6.13-6.15-12.27-12.3-18.41-18.44c-0.22-0.22-0.51-0.42-0.8-0.5     c-1.23-0.33-1.99-1.09-2.32-2.32c-0.08-0.29-0.26-0.59-0.48-0.8c-4.47-4.48-8.98-8.92-13.42-13.42     C220.13,170.55,218.2,168.33,216.11,166.07z"/>
			<path class="st1" d="M279.58,171.03c-8.8-8.83-17.61-17.66-26.39-26.46c-0.03,0.01,0.17-0.11,0.37-0.11     c8.18,0.12,16.37,0.25,24.55,0.37c0.63,0.01,1.04,0.14,1.08,0.92c0.47,8.3,0.92,16.59,0.48,24.9     C279.67,170.82,279.6,170.96,279.58,171.03z M260.98,148c5.36,5.17,10.52,10.16,15.82,15.27c-0.28-5.07-0.55-10.1-0.83-15.27     C271.01,148,266.17,148,260.98,148z"/>
			<path class="st1" d="M231.68,218.16c-8.02,0.46-16.53,0.08-25.39-0.47c-0.2-8.6-0.39-17.13-0.59-25.79     C214.57,200.86,223.2,209.6,231.68,218.16z M223.8,214.94c-4.69-4.87-9.64-10.01-14.58-15.14c-0.08,3.4,0.15,6.65,0.3,9.91     c0.07,1.62,0.01,3.25,0.01,4.91c1.63,0.11,3.1,0.29,4.57,0.31C217.52,214.97,220.95,214.94,223.8,214.94z"/>
			<path class="st1" d="M297.67,102.11c8.21,8.23,16.23,16.27,24.53,24.58c-8.06-0.18-15.9-0.35-23.87-0.53     C297.73,118.08,297.34,110.21,297.67,102.11z M301.36,122.95c4.25,0.16,8.27,0.31,12.29,0.46c0.1-0.17,0.19-0.35,0.29-0.52     c-4.22-4-8.45-7.99-12.58-11.9C301.36,114.81,301.36,118.78,301.36,122.95z"/>
			<path class="st1" d="M165.42,236.14c0.08-0.01,0.34-0.08,0.6-0.07c6.87,0.17,13.74,0.35,20.61,0.57c0.29,0.01,0.8,0.44,0.81,0.69     c0.24,7.11,0.42,14.22,0.61,21.33c0,0.06-0.08,0.12-0.04,0.07C180.48,251.19,172.93,243.65,165.42,236.14z M184.21,239.68     c-3.61,0-7.18,0-11.01,0c3.89,3.68,7.65,7.23,11.41,10.78c0.09-0.06,0.17-0.11,0.26-0.17     C184.64,246.84,184.43,243.39,184.21,239.68z"/>
		</g>
	</g>
</g>
<g id="Georgia_x5F_Tech_x5F_Yellow_x5F_Jackets_x5F_logo__x28_2_x29__xA0_Image_00000068662365808507323380000014155850395197880757_">
	<g>
		<g>
			<path class="st2" d="M120,172.8c0-0.96,0-1.92,0-2.88c0.08-0.24,0.23-0.47,0.24-0.71c0.34-7.26,2-14.21,4.97-20.84     c6.19-13.83,16.12-24.39,28.8-32.41c16.92-10.7,35.42-14.78,55.31-12.58c12.52,1.39,24.36,4.96,35.4,11.1     c0.16,0.09,0.34,0.15,0.68,0.3c0-4.19,0-8.25,0-12.3c8.75,0,17.36,0,25.99,0c0,14.94,0,29.8,0,44.72     c-0.27,0.02-0.51,0.06-0.74,0.06c-7.84,0-15.68,0.02-23.52-0.03c-0.53,0-1.16-0.29-1.58-0.65c-6.37-5.36-13.45-9.44-21.34-12.09     c-12.53-4.2-25.06-4.68-37.53,0.18c-9.68,3.77-17.66,9.72-22.64,19.02c-5.08,9.5-6.3,19.49-2.26,29.7     c2.96,7.48,8.56,12.73,15.37,16.72c8.35,4.9,17.46,7.35,27.07,8.06c9.14,0.67,17.94-0.65,26.23-4.66     c8.19-3.96,14.52-9.81,18.05-18.37c0.55-1.33,0.93-2.73,1.41-4.16c-2.48,0-4.74,0-7.04,0c-0.74,3.85-1.47,7.63-2.2,11.4     c-7.56,0-14.98,0-22.44,0c0-13.5,0-26.94,0-40.44c0.48,0,0.88,0,1.28,0c49.15,0,98.31,0,147.46,0c0.48,0,0.95-0.02,1.43-0.02     c0,13.52,0,27.04,0,40.56c-7.57,0-15.14,0-22.7,0c-0.71-3.97-1.38-7.73-2.05-11.47c-9.34,0-18.59,0-27.82,0     c0,17.03,0,33.96,0,51.03c4.39,0,8.72,0,13.16,0c0,2.52,0,4.91,0,7.3c0.01,6.3,0.03,12.6,0.05,18.9c-20.4,0-40.8,0-61.2,0     c0-8.7,0-17.41,0-26.22c4.45,0,8.78,0,13.11,0c0-17.08,0-34.05,0-50.98c-2.2,0-4.31,0-6.52,0c0,15.29,0,30.52,0,45.75     c-9.24,0-18.37,0-27.63,0c0-1.42,0-2.75,0-4.19c-0.33,0.12-0.52,0.18-0.69,0.26c-3.02,1.24-6,2.61-9.08,3.71     c-9.68,3.45-19.7,5.32-29.88,6.57c-10.53,1.29-20.98,1.09-31.35-1.28c-14.44-3.3-27.3-9.63-37.91-20.11     c-10.06-9.94-16.26-21.82-17.52-36.07C120.3,174.71,120.13,173.76,120,172.8z"/>
		</g>
	</g>
</g>
<g id="Layer_1_xA0_Image_00000089533427252959635510000012240339505915088319_">
	<g>
		<g>
			<path class="st3" d="M249.6,107.04c5.92,0,11.84,0,17.76,0c-0.02,0.15-0.06,0.31-0.06,0.46c0.01,11.4,0.02,22.8,0.02,34.19     c0,1.55-0.22,1.78-1.71,1.78c-5.56,0.02-11.12,0.02-16.68-0.01c-0.53,0-1.14-0.15-1.56-0.43c-1.31-0.88-2.58-1.82-3.81-2.82     c-3.36-2.74-7.13-4.81-11.04-6.57c-2.86-1.29-5.85-2.36-8.86-3.22c-3.78-1.09-7.62-2.49-11.49-2.64     c-6.68-0.27-13.47-0.92-20.04,1.18c-2.86,0.91-5.81,1.6-8.55,2.76c-4.15,1.76-8.15,3.89-11.47,7.02     c-2.56,2.42-5.15,4.84-7.45,7.5c-2.64,3.06-4.64,6.52-6.12,10.35c-1.89,4.89-3.21,9.85-3.06,15.12c0.07,2.41,0.05,4.88,0.57,7.22     c0.79,3.61,1.9,7.18,4.08,10.26c1.61,2.28,3.19,4.61,5,6.74c1.22,1.44,2.75,2.63,4.24,3.81c1.89,1.5,3.74,3.11,5.84,4.25     c4.92,2.65,9.94,5.15,15.45,6.39c2.31,0.52,4.61,1.05,6.94,1.46c2.09,0.37,4.21,0.82,6.31,0.81c4.21-0.04,8.44,0.5,12.64-0.4     c2-0.43,4.11-0.47,6.05-1.07c4.32-1.34,8.68-2.67,12.51-5.18c2.57-1.68,5.04-3.53,7.46-5.42c1.22-0.95,2.35-2.08,3.3-3.3     c1.72-2.2,3.39-4.46,4.88-6.83c1.75-2.78,2.82-5.88,3.61-9.06c0.33-1.35,0.42-2.76,0.63-4.21c-5.3,0-10.36,0-15.36,0     c-0.22,0.8-0.48,1.51-0.61,2.25c-0.38,2.13-0.7,4.28-1.06,6.42c-0.47,2.79-0.48,2.79-3.31,2.79c-3.44,0-6.88,0-10.32,0     c-1.58,0-1.58,0-1.58-1.58c0-9.64,0-19.28,0-28.91c0-1.58,0-1.59,1.58-1.59c46.15,0.01,92.3,0.01,138.45,0.03     c0.51,0,1.02,0.12,1.53,0.18c0,10.56,0,21.12,0,31.68c-4.5,0.06-9.01,0.13-13.51,0.18c-0.76,0.01-1.58,0.02-1.73-1.04     c-0.18-1.29-0.34-2.59-0.55-3.88c-0.35-2.17-0.74-4.34-1.11-6.51c-11.98,0-23.91,0-35.89,0c-0.02,0.43-0.06,0.79-0.06,1.14     c0,18.79,0,37.58,0,56.37c0,1.55,0.5,2.03,2.1,2.04c3.32,0,6.64,0.05,9.95-0.02c1.14-0.02,1.42,0.37,1.41,1.45     c-0.05,4.8-0.02,9.59-0.03,14.39c0,0.47-0.12,0.94-0.18,1.41c-17.44,0-34.88,0-52.32,0c-0.06-0.39-0.18-0.78-0.18-1.17     c-0.01-4.96,0.01-9.92-0.03-14.87c-0.01-1,0.4-1.2,1.29-1.19c3.32,0.04,6.64,0.02,9.96,0.01c1.77,0,2.21-0.43,2.21-2.16     c0-18.71,0-37.43-0.01-56.14c0-0.42-0.04-0.84-0.06-1.21c-5.21,0-10.26,0-15.39,0c0,0.59,0,1.06,0,1.54     c0,14.16-0.02,28.31,0.01,42.47c0,1.14-0.31,1.52-1.48,1.5c-5.24-0.06-10.48-0.06-15.71,0c-1.2,0.01-1.51-0.4-1.46-1.52     c0.08-1.78,0.02-3.56,0.02-5.54c-0.57,0.24-0.93,0.36-1.26,0.54c-3.16,1.64-6.22,3.51-9.49,4.86c-3.53,1.46-7.22,2.6-10.92,3.6     c-4.15,1.12-8.38,1.93-12.58,2.85c-1.08,0.24-2.18,0.39-3.27,0.56c-1.95,0.3-3.9,0.6-5.86,0.88c-0.43,0.06-0.88,0.02-1.31,0.08     c-2.23,0.29-4.46,0.82-6.69,0.84c-4.65,0.04-9.32,0.37-13.96-0.41c-1.79-0.3-3.65-0.26-5.43-0.64c-3.21-0.68-6.41-1.44-9.55-2.39     c-3.16-0.97-6.32-2.05-9.34-3.4c-3.06-1.36-6.06-2.93-8.88-4.72c-3.33-2.11-6.61-4.36-9.61-6.91c-2.53-2.15-4.78-4.69-6.88-7.28     c-1.89-2.32-3.62-4.81-5.05-7.43c-1.63-3-3.06-6.16-4.2-9.39c-0.94-2.67-1.32-5.53-1.98-8.3c-0.06-0.24-0.34-0.42-0.52-0.63     c0-4.48,0-8.96,0-13.44c0.18-0.16,0.48-0.29,0.52-0.48c0.36-1.83,0.51-3.71,1.05-5.48c0.98-3.22,1.98-6.45,3.34-9.52     c1.21-2.73,2.74-5.35,4.42-7.83c2.12-3.14,4.31-6.3,6.87-9.07c2.77-2.99,5.97-5.59,9.05-8.28c3.63-3.16,7.76-5.63,12.02-7.78     c3.65-1.85,7.48-3.36,11.33-4.79c2.81-1.04,5.74-1.82,8.67-2.49c2.81-0.64,5.67-1.29,8.53-1.39c6.07-0.21,12.15-0.2,18.22-0.02     c2.7,0.08,5.38,0.78,8.05,1.28c2.56,0.47,5.18,0.82,7.65,1.62c4.01,1.3,7.9,2.96,11.87,4.39c3.03,1.1,5.75,2.74,8.43,4.49     c1.46,0.96,3.05,1.71,4.79,2.67C249.6,116.93,249.6,111.98,249.6,107.04z"/>
		</g>
	</g>
</g>
</svg>