<?xml version="1.0" encoding="UTF-8"?>
<!DOCTYPE svg PUBLIC "-//W3C//DTD SVG 1.1//EN" "http://www.w3.org/Graphics/SVG/1.1/DTD/svg11.dtd">
<svg version="1.1" id="Layer_1" xmlns="http://www.w3.org/2000/svg" xmlns:xlink="http://www.w3.org/1999/xlink" x="0px" y="0px" width="21px" height="21px" viewBox="0 0 21 21" enable-background="new 0 0 21 21" xml:space="preserve">
  <g id="icon">
    <circle cx="10.5" cy="10.5" r="10" fill="none" stroke="#434A54" stroke-width="1" stroke-linecap="round" stroke-miterlimit="1" stroke-linejoin="round"/>
    <path d="M13.8941,7.5c-0.5238,-0.3713,-1.8041,-0.9813,-3.3628,-0.9813c-1.6038,0,-2.7499,0.44,-3.4291,0.9813M12.8504,14.5513l0.5164,0.9487c0,0,2.4694,-0.314,4.0957,-2.0813c-0.2769,-4.327,-1.8903,-6.5313,-1.8903,-6.5313s-1.4445,-1.4549,-3.1506,-1.5772L11.8777,6.6M5.4903,12.825c1.0202,0.7273,2.5598,1.4844,5.0409,1.4844s4.0208,-0.757,5.0409,-1.4844M9.2246,6.6l-0.5837,-1.2897c-1.7898,0.1594,-3.1506,1.5772,-3.1506,1.5772S3.8769,9.0918,3.6,13.4188C5.2263,15.186,7.6957,15.5,7.6957,15.5l0.5164,-0.9487M8.2766,11.9c-0.6705,0,-1.2141,-0.5317,-1.2141,-1.1875S7.6061,9.525,8.2766,9.525c0.6705,0,1.2141,0.5317,1.2141,1.1875S8.9471,11.9,8.2766,11.9zM12.7859,11.9c-0.6705,0,-1.2141,-0.5317,-1.2141,-1.1875s0.5436,-1.1875,1.2141,-1.1875S14,10.0567,14,10.7125S13.4564,11.9,12.7859,11.9z" fill="none" stroke="#434A54" stroke-width="1" stroke-linecap="round" stroke-miterlimit="1" stroke-linejoin="round"/>
  </g>
</svg>
