<?xml version="1.0" encoding="UTF-8"?>
<!DOCTYPE svg PUBLIC "-//W3C//DTD SVG 1.1//EN" "http://www.w3.org/Graphics/SVG/1.1/DTD/svg11.dtd">
<svg version="1.1" id="Layer_1" xmlns="http://www.w3.org/2000/svg" xmlns:xlink="http://www.w3.org/1999/xlink" x="0px" y="0px" width="21px" height="21px" viewBox="0 0 21 21" enable-background="new 0 0 21 21" xml:space="preserve">
  <g id="icon">
    <circle cx="10.5" cy="10.5" r="10" fill="none" stroke="#434A54" stroke-width="1" stroke-linecap="round" stroke-miterlimit="1" stroke-linejoin="round"/>
    <path d="M15.2336,15.3098c-0.6173,0.3967,-1.2828,0.6942,-1.9966,0.8926c-0.7139,0.1983,-1.4921,0.2976,-2.3347,0.2976c-0.8427,0,-1.6343,-0.1289,-2.3749,-0.3864c-0.7407,-0.2577,-1.3875,-0.6376,-1.9402,-1.1399c-0.5528,-0.5024,-0.989,-1.1219,-1.3082,-1.8587c-0.3194,-0.7368,-0.479,-1.5868,-0.479,-2.5504c0,-0.8759,0.1556,-1.6809,0.4669,-2.4151c0.3112,-0.7342,0.7339,-1.3653,1.268,-1.8934c0.534,-0.5281,1.1553,-0.939,1.8637,-1.2327c0.7085,-0.2937,1.4625,-0.4405,2.2622,-0.4405c0.4669,0,0.9218,0.0452,1.3646,0.1353c0.4428,0.0902,0.8614,0.2241,1.2559,0.4019c0.3945,0.1777,0.758,0.4019,1.0909,0.6724c0.3327,0.2705,0.6185,0.5887,0.8574,0.9544c0.2387,0.3659,0.4252,0.778,0.5595,1.2365c0.1341,0.4587,0.2013,0.9635,0.2013,1.5148c0,0.5668,-0.0753,1.0781,-0.2254,1.5341c-0.1504,0.456,-0.3542,0.8451,-0.6119,1.167c-0.2576,0.322,-0.5568,0.5707,-0.8976,0.7458c-0.3408,0.1752,-0.7017,0.2627,-1.0828,0.2627c-0.2791,0,-0.5126,-0.0425,-0.7004,-0.1275c-0.188,-0.0851,-0.3342,-0.2048,-0.4387,-0.3594c-0.1047,-0.1545,-0.1705,-0.3401,-0.1973,-0.5564c-0.0269,-0.2164,-0.016,-0.5011,0.0216,-0.7639c-0.2737,0.5925,-0.6188,1.0718,-1.0239,1.3473c-0.4053,0.2757,-0.8494,0.4135,-1.3324,0.4135c-0.2845,0,-0.5287,-0.0476,-0.7326,-0.143c-0.204,-0.0953,-0.3744,-0.2242,-0.5112,-0.3865c-0.1369,-0.1622,-0.2375,-0.3528,-0.3019,-0.5718c-0.0644,-0.2189,-0.0966,-0.4546,-0.0966,-0.7071c0,-0.2885,0.0389,-0.5809,0.1168,-0.8772c0.0778,-0.2962,0.1918,-0.5796,0.3421,-0.8501c0.1502,-0.2705,0.3354,-0.5242,0.5555,-0.7612c0.22,-0.237,0.4696,-0.4417,0.7487,-0.6144c0.279,-0.1726,0.5877,-0.3091,0.9258,-0.4096c0.3381,-0.1005,0.703,-0.1507,1.0949,-0.1507c0.2201,0,0.4441,0.0193,0.6722,0.058c0.2281,0.0386,0.4227,0.0966,0.5836,0.1739l-1.041,3.479" fill="none" stroke="#434A54" stroke-width="1" stroke-linecap="round" stroke-miterlimit="1" stroke-linejoin="round"/>
  </g>
</svg>
