<?xml version="1.0" encoding="utf-8"?>
<!-- Generator: Adobe Illustrator 27.0.0, SVG Export Plug-In . SVG Version: 6.00 Build 0)  -->
<svg version="1.1" id="Layer_1" xmlns="http://www.w3.org/2000/svg" xmlns:xlink="http://www.w3.org/1999/xlink" x="0px" y="0px"
	 viewBox="0 0 21 21" style="enable-background:new 0 0 21 21;" xml:space="preserve">
<style type="text/css">
	.st0{fill:none;stroke:#434A54;stroke-linecap:round;stroke-linejoin:round;stroke-miterlimit:1;}
	.st1{fill:#434A54;}
</style>
<g id="icon">
	<circle class="st0" cx="10.5" cy="10.5" r="10"/>
</g>
<path class="st1" d="M16.8,7.5c0-0.1,0-0.2-0.1-0.3l-3.9-3.9c0,0,0,0,0,0c0,0,0,0,0,0c0,0,0,0,0,0c0,0,0,0,0,0c0,0,0,0,0,0
	c0,0,0,0,0,0c0,0,0,0,0,0c0,0,0,0,0,0c0,0,0,0,0,0c0,0,0,0,0,0c0,0,0,0,0,0c0,0,0,0,0,0c0,0,0,0,0,0c0,0,0,0,0,0c0,0,0,0,0,0H5.7
	c-0.5,0-1,0.4-1,1v12.4c0,0.5,0.4,1,1,1h10.1c0.5,0,1-0.4,1-1L16.8,7.5C16.8,7.5,16.8,7.5,16.8,7.5z M12.9,4.5L15.4,7h-2.5V4.5z
	 M15.8,16.6H5.7c-0.1,0-0.1-0.1-0.1-0.1V4.1c0-0.1,0.1-0.1,0.1-0.1H12v3.5c0,0.2,0.2,0.4,0.4,0.4H16v8.6
	C16,16.6,15.9,16.6,15.8,16.6z M13.4,10.8c0,0.2-0.2,0.4-0.4,0.4H8.5c-0.2,0-0.4-0.2-0.4-0.4s0.2-0.4,0.4-0.4H13
	C13.3,10.4,13.4,10.6,13.4,10.8z M13.4,13.1c0,0.2-0.2,0.4-0.4,0.4H8.5c-0.2,0-0.4-0.2-0.4-0.4c0-0.2,0.2-0.4,0.4-0.4H13
	C13.3,12.7,13.4,12.9,13.4,13.1z"/>
</svg>
